HIERARCHY
ROOT Hips
{
  OFFSET 52.4154 59.3118 -14.5014
  CHANNELS 6 Xposition Yposition Zposition Zrotation Xrotation Yrotation
  JOINT spine
  {
    OFFSET 0 7.4756 0.429885
    CHANNELS 3 Zrotation Xrotation Yrotation
    JOINT spine1
    {
      OFFSET 0 9.92301 0
      CHANNELS 3 Zrotation Xrotation Yrotation
      JOINT spine2
      {
        OFFSET 0 9.50804 0
        CHANNELS 3 Zrotation Xrotation Yrotation
        JOINT Neck
        {
          OFFSET 0 24.4111 1.16384
          CHANNELS 3 Zrotation Xrotation Yrotation
          JOINT Head
          {
            OFFSET 0 7.37523 0
            CHANNELS 3 Zrotation Xrotation Yrotation
            End Site
            {
              OFFSET 0 17.8522 -5.88741
            }
          }
        }
        JOINT RightShoulder
        {
          OFFSET -4.00356 10.2679 -0.557468
          CHANNELS 3 Zrotation Xrotation Yrotation
          JOINT RightArm
          {
            OFFSET 0 13.4673 0
            CHANNELS 3 Zrotation Xrotation Yrotation
            JOINT RightArmRoll
            {
              OFFSET 0 6.79857 0
              CHANNELS 3 Zrotation Xrotation Yrotation
              JOINT RightForeArm
              {
                OFFSET 0 19.8018 0
                CHANNELS 3 Zrotation Xrotation Yrotation
                JOINT RightForeArmRoll
                {
                  OFFSET 0 7.62905 0
                  CHANNELS 3 Zrotation Xrotation Yrotation
                  JOINT RightHand
                  {
                    OFFSET 0 15.3098 0
                    CHANNELS 3 Zrotation Xrotation Yrotation
                    End Site
                    {
                      OFFSET 0 0 0
                    }
                  }
                }
              }
            }
          }
        }
        JOINT LeftShoulder
        {
          OFFSET 4.00356 10.2679 -0.557468
          CHANNELS 3 Zrotation Xrotation Yrotation
          JOINT LeftArm
          {
            OFFSET 0 13.4673 0
            CHANNELS 3 Zrotation Xrotation Yrotation
            JOINT LeftArmRoll
            {
              OFFSET 0 6.79857 0
              CHANNELS 3 Zrotation Xrotation Yrotation
              JOINT LeftForeArm
              {
                OFFSET 0 19.8018 0
                CHANNELS 3 Zrotation Xrotation Yrotation
                JOINT LeftForeArmRoll
                {
                  OFFSET 0 7.62905 0
                  CHANNELS 3 Zrotation Xrotation Yrotation
                  JOINT LeftHand
                  {
                    OFFSET 0 15.3098 0
                    CHANNELS 3 Zrotation Xrotation Yrotation
                    End Site
                    {
                      OFFSET 0 0 0
                    }
                  }
                }
              }
            }
          }
        }
      }
    }
  }
  JOINT RightUpLeg
  {
    OFFSET -6.62609 -1.21505 -1.01927
    CHANNELS 3 Zrotation Xrotation Yrotation
    JOINT RightUpLegRoll
    {
      OFFSET 0 17.9517 0
      CHANNELS 3 Zrotation Xrotation Yrotation
      JOINT RightLeg
      {
        OFFSET 0 -22.2304 0
        CHANNELS 3 Zrotation Xrotation Yrotation
        JOINT RightLegRoll
        {
          OFFSET 0 22.3032 0
          CHANNELS 3 Zrotation Xrotation Yrotation
          JOINT RightFoot
          {
            OFFSET 0 18.5636 0
            CHANNELS 3 Zrotation Xrotation Yrotation
            JOINT RightToeBase
            {
              OFFSET 0 15.5183 0
              CHANNELS 3 Zrotation Xrotation Yrotation
              End Site
              {
                OFFSET 0.00657761 7.51538 -0.866263
              }
            }
          }
        }
      }
    }
  }
  JOINT LeftUpLeg
  {
    OFFSET 6.62609 -1.21505 -1.01927
    CHANNELS 3 Zrotation Xrotation Yrotation
    JOINT LeftUpLegRoll
    {
      OFFSET 0 17.9518 0
      CHANNELS 3 Zrotation Xrotation Yrotation
      JOINT LeftLeg
      {
        OFFSET 0 22.2303 0
        CHANNELS 3 Zrotation Xrotation Yrotation
        JOINT LeftLegRoll
        {
          OFFSET 0 22.5093 0
          CHANNELS 3 Zrotation Xrotation Yrotation
          JOINT LeftFoot
          {
            OFFSET 0 18.3575 0
            CHANNELS 3 Zrotation Xrotation Yrotation
            JOINT LeftToeBase
            {
              OFFSET 0 15.5183 0
              CHANNELS 3 Zrotation Xrotation Yrotation
              End Site
              {
                OFFSET -0.029478 7.51539 -0.866263
              }
            }
          }
        }
      }
    }
  }
}
MOTION
Frames: 13
Frame Time: 0.00208333
53.3983 58.2007 -15.2651 -0.284416 -13.0996 2.92874 0.0610464 3.05214 -0.652112 0.16498 10.1082 -1.32979 0.181802 11.7531 -1.33584 -11.8708 4.98059 -0.925232 14.2264 2.6541 -2.20488 61.4467 -3.25517 -2.24052 114.772 35.5559 -0.841555 2.32386e-005 1.50764e-006 1.60429e-006 10.3714 11.8649 -2.16279 1.07556e-006 5.8827e-006 -3.0067 8.02959 -4.95141 0.697658 -73.8152 -5.19562 4.08903 -97.2793 35.4549 -17.7788 3.18532e-006 -9.88841e-006 3.76803e-007 -0.397005 1.11036 0.848598 1.21908e-005 2.56489e-006 3.00812 -8.03028 -4.95137 -0.697654 -176.52 72.1707 7.78158 180 7.01187e-015 177.872 -98.6835 84.7418 97.1281 1.74921e-007 -2.09689e-006 2.62637 -17.2714 64.6342 17.0523 8.13952 25.2325 -3.48903 -176.613 70.5962 -6.03614 4.54188e-006 -4.6773e-006 -1.75827 44.9031 -81.9832 44.0715 3.03243e-007 -1.62171e-006 -1.84991 15.4254 60.6304 -14.7785 -8.19059 26.6163 1.61375 
53.4021 58.1884 -15.2813 -0.272696 -13.174 2.94068 0.0638285 3.05153 -0.655624 0.170909 10.1066 -1.3385 0.187857 11.7515 -1.34467 -11.8884 5.09978 -0.918256 14.2056 2.65293 -2.21519 61.4331 -3.26105 -2.24284 114.783 35.5038 -0.820707 2.32386e-005 1.50764e-006 1.60429e-006 10.3663 11.8633 -2.16224 1.07556e-006 5.8827e-006 -3.0067 8.02959 -4.95141 0.697658 -73.8339 -5.15637 4.07235 -97.2662 35.4152 -17.8135 3.18532e-006 -9.88841e-006 3.76803e-007 -0.383055 1.07184 0.848076 1.21908e-005 2.56489e-006 3.00812 -8.03028 -4.95137 -0.697654 -176.507 72.1402 7.74398 180 7.01187e-015 177.872 -98.4678 84.7379 96.9243 1.74921e-007 -2.09689e-006 2.62688 -17.2707 64.6347 17.0523 8.13952 25.2325 -3.48903 -176.673 70.5432 -5.96625 4.54188e-006 -4.6773e-006 -1.75949 44.8857 -81.9835 44.0491 3.03243e-007 -1.62171e-006 -1.84818 15.4117 60.5999 -14.7629 -8.19077 26.6197 1.60945 
53.3984 58.1754 -15.2986 -0.261001 -13.2474 2.95241 0.0666778 3.05078 -0.659336 0.176993 10.1047 -1.34754 0.194071 11.7497 -1.35383 -11.9069 5.21708 -0.910778 14.1857 2.65225 -2.22503 61.4178 -3.26738 -2.24528 114.797 35.4528 -0.801589 2.32386e-005 1.50764e-006 1.60429e-006 10.3612 11.8612 -2.16165 1.07556e-006 5.8827e-006 -3.0067 8.02959 -4.95141 0.697658 -73.8534 -5.11804 4.05615 -97.2529 35.3751 -17.8484 3.18532e-006 -9.88841e-006 3.76803e-007 -0.369373 1.03505 0.847594 1.21908e-005 2.56489e-006 3.00812 -8.03028 -4.95137 -0.697654 -176.497 72.109 7.70934 180 7.01187e-015 177.872 -98.2557 84.7341 96.7241 1.74921e-007 -2.09689e-006 2.6272 -17.2697 64.6349 17.0519 8.13952 25.2325 -3.48903 -176.734 70.4906 -5.89695 4.54188e-006 -4.6773e-006 -1.76069 44.8689 -81.9842 44.0275 3.03243e-007 -1.62171e-006 -1.84655 15.3986 60.5708 -14.7482 -8.19094 26.6228 1.60552 
53.3989 58.1694 -15.3115 -0.249282 -13.3198 2.96397 0.0696038 3.04988 -0.663279 0.183248 10.1026 -1.35693 0.200462 11.7475 -1.36335 -11.9268 5.33237 -0.902666 14.1673 2.65203 -2.23431 61.4005 -3.27418 -2.24784 114.814 35.4026 -0.784415 2.32386e-005 1.50764e-006 1.60429e-006 10.3559 11.8587 -2.16102 1.07556e-006 5.8827e-006 -3.0067 8.02959 -4.95141 0.697658 -73.8741 -5.08071 4.0405 -97.2388 35.3348 -17.8839 3.18532e-006 -9.88841e-006 3.76803e-007 -0.355743 0.999675 0.847133 1.21908e-005 2.56489e-006 3.00812 -8.03028 -4.95137 -0.697654 -176.488 72.0771 7.6779 180 7.01187e-015 177.872 -98.0477 84.7304 96.5279 1.74921e-007 -2.09689e-006 2.6273 -17.2684 64.6346 17.0514 8.13952 25.2325 -3.48903 -176.794 70.4385 -5.82856 4.54188e-006 -4.6773e-006 -1.76186 44.8524 -81.9852 44.0065 3.03243e-007 -1.62171e-006 -1.84503 15.3862 60.5433 -14.7342 -8.19108 26.6256 1.60198 
53.3994 58.1568 -15.3287 -0.237491 -13.391 2.97539 0.0726157 3.04881 -0.667484 0.189691 10.1001 -1.36671 0.207046 11.745 -1.37327 -11.9485 5.44555 -0.893788 14.1509 2.65221 -2.24288 61.3807 -3.28145 -2.25048 114.835 35.3531 -0.769395 2.32386e-005 1.50764e-006 1.60429e-006 10.3507 11.856 -2.16037 1.07556e-006 5.8827e-006 -3.0067 8.02959 -4.95141 0.697658 -73.8964 -5.04442 4.02542 -97.2235 35.2946 -17.9204 3.18532e-006 -9.88841e-006 3.76803e-007 -0.341949 0.965431 0.846676 1.21908e-005 2.56489e-006 3.00812 -8.03028 -4.95137 -0.697654 -176.482 72.0442 7.6499 180 7.01187e-015 177.872 -97.8441 84.7268 96.3359 1.74921e-007 -2.09689e-006 2.62716 -17.2667 64.6339 17.0506 8.13952 25.2325 -3.48903 -176.854 70.3871 -5.76138 4.54188e-006 -4.6773e-006 -1.763 44.836 -81.9866 43.9858 3.03243e-007 -1.62171e-006 -1.84359 15.3746 60.5174 -14.7212 -8.19119 26.628 1.59886 
53.401 58.1436 -15.3376 -0.22558 -13.4611 2.98671 0.0757228 3.04754 -0.671984 0.196339 10.0972 -1.37692 0.213841 11.7421 -1.38361 -11.9724 5.55653 -0.884013 14.1371 2.65275 -2.25066 61.3582 -3.28921 -2.25319 114.859 35.304 -0.756741 2.32386e-005 1.50764e-006 1.60429e-006 10.3455 11.8531 -2.15972 1.07556e-006 5.8827e-006 -3.0067 8.02959 -4.95141 0.697658 -73.9207 -5.00927 4.01099 -97.2065 35.2548 -17.9585 3.18532e-006 -9.88841e-006 3.76803e-007 -0.327776 0.932017 0.846205 1.21908e-005 2.56489e-006 3.00812 -8.03028 -4.95137 -0.697654 -176.478 72.0101 7.62557 180 7.01187e-015 177.872 -97.6453 84.7234 96.1486 1.74921e-007 -2.09689e-006 2.62676 -17.2647 64.6328 17.0495 8.13952 25.2325 -3.48903 -176.913 70.3362 -5.69572 4.54188e-006 -4.6773e-006 -1.76409 44.8194 -81.9884 43.9652 3.03243e-007 -1.62171e-006 -1.84222 15.3638 60.4931 -14.7091 -8.19127 26.6301 1.59621 
53.3974 58.1317 -15.3529 -0.213499 -13.53 2.99796 0.0789342 3.04608 -0.676809 0.203209 10.094 -1.38759 0.220863 11.7389 -1.39442 -11.9989 5.66518 -0.873209 14.1265 2.6536 -2.25752 61.3326 -3.29748 -2.25595 114.888 35.2552 -0.746666 2.32386e-005 1.50764e-006 1.60429e-006 10.3405 11.8501 -2.1591 1.07556e-006 5.8827e-006 -3.0067 8.02959 -4.95141 0.697658 -73.9475 -4.9753 3.99723 -97.1875 35.2155 -17.9986 3.18532e-006 -9.88841e-006 3.76803e-007 -0.313009 0.899137 0.845702 1.21908e-005 2.56489e-006 3.00812 -8.03028 -4.95137 -0.697654 -176.477 71.9746 7.60514 180 7.01187e-015 177.873 -97.4517 84.72 95.9664 1.74921e-007 -2.09689e-006 2.62606 -17.2622 64.6313 17.0483 8.13952 25.2325 -3.48903 -176.972 70.2861 -5.63189 4.54188e-006 -4.6773e-006 -1.76513 44.8023 -81.9906 43.9445 3.03243e-007 -1.62171e-006 -1.84092 15.3537 60.4705 -14.698 -8.19133 26.6318 1.59404 
53.3983 58.1225 -15.3609 -0.201199 -13.5976 3.00918 0.0822593 3.04439 -0.681992 0.210316 10.0904 -1.39874 0.22813 11.7353 -1.40572 -12.0284 5.77143 -0.861246 14.1197 2.65471 -2.26334 61.3034 -3.30626 -2.25874 114.922 35.2063 -0.739379 2.32386e-005 1.50764e-006 1.60429e-006 10.3357 11.8472 -2.1585 1.07556e-006 5.8827e-006 -3.0067 8.02959 -4.95141 0.697658 -73.9772 -4.9426 3.98421 -97.1659 35.1771 -18.0411 3.18532e-006 -9.88841e-006 3.76803e-007 -0.297431 0.866493 0.845151 1.21908e-005 2.56489e-006 3.00812 -8.03028 -4.95137 -0.697654 -176.479 71.9376 7.58886 180 7.01187e-015 177.873 -97.2638 84.7167 95.7896 1.74921e-007 -2.09689e-006 2.62505 -17.2594 64.6294 17.0468 8.13952 25.2325 -3.48903 -177.03 70.2367 -5.57019 4.54188e-006 -4.6773e-006 -1.7661 44.7845 -81.9933 43.9235 3.03243e-007 -1.62171e-006 -1.83966 15.3445 60.4497 -14.6879 -8.19135 26.6331 1.59239 
53.4036 58.1116 -15.376 -0.188579 -13.6639 3.02026 0.0858397 3.04249 -0.687609 0.217977 10.0865 -1.41056 0.235961 11.7314 -1.41769 -12.0635 5.8751 -0.847583 14.1175 2.6562 -2.26812 61.2678 -3.3163 -2.26175 114.964 35.1579 -0.735579 2.32386e-005 1.50764e-006 1.60429e-006 10.3305 11.8436 -2.15785 1.07556e-006 5.8827e-006 -3.0067 8.02959 -4.95141 0.697658 -74.0123 -4.91065 3.97188 -97.1396 35.1401 -18.0879 3.18532e-006 -9.88841e-006 3.76803e-007 -0.280642 0.833987 0.844579 1.21908e-005 2.56489e-006 3.00812 -8.03028 -4.95137 -0.697654 -176.484 71.8983 7.57806 180 7.01188e-015 177.873 -97.0841 84.7135 95.6209 1.74921e-007 -2.09689e-006 2.6236 -17.2559 64.6267 17.0448 8.13952 25.2325 -3.48903 -177.089 70.1879 -5.50907 4.54188e-006 -4.6773e-006 -1.76701 44.7654 -81.9962 43.9017 3.03243e-007 -1.62171e-006 -1.83852 15.3361 60.4306 -14.6788 -8.19134 26.634 1.59124 
53.4132 58.1059 -15.3829 -0.175622 -13.7292 3.03108 0.0897686 3.0404 -0.69368 0.226404 10.0821 -1.4231 0.244569 11.727 -1.43042 -12.1055 5.97624 -0.831976 14.1201 2.65821 -2.27196 61.2241 -3.32811 -2.26514 115.016 35.1106 -0.735523 2.32386e-005 1.50764e-006 1.60429e-006 10.3244 11.8385 -2.15706 1.07556e-006 5.8827e-006 -3.0067 8.02959 -4.95141 0.697658 -74.0544 -4.87903 3.96013 -97.1074 35.1045 -18.1395 3.18532e-006 -9.88841e-006 3.76803e-007 -0.262597 0.801888 0.844026 1.21908e-005 2.56489e-006 3.00812 -8.03028 -4.95137 -0.697654 -176.494 71.8565 7.57342 180 7.01188e-015 177.874 -96.9138 84.7104 95.4617 1.74921e-007 -2.09689e-006 2.62165 -17.2515 64.623 17.0422 8.13952 25.2325 -3.48903 -177.149 70.1395 -5.44708 4.54188e-006 -4.6773e-006 -1.7679 44.7449 -81.9994 43.8788 3.03243e-007 -1.62171e-006 -1.83754 15.3285 60.413 -14.6705 -8.19131 26.6345 1.59053 
53.4035 58.0947 -15.39 -0.162408 -13.7932 3.04165 0.0939823 3.03812 -0.700151 0.235458 10.0775 -1.4363 0.253815 11.7224 -1.44379 -12.153 6.07496 -0.814737 14.1267 2.66072 -2.27497 61.1737 -3.34138 -2.26887 115.077 35.0645 -0.738767 2.32386e-005 1.50764e-006 1.60429e-006 10.3175 11.8321 -2.15614 1.07556e-006 5.8827e-006 -3.0067 8.02959 -4.95141 0.697658 -74.1019 -4.84788 3.94895 -97.0706 35.07 -18.195 3.18532e-006 -9.88841e-006 3.76803e-007 -0.243614 0.770454 0.843496 1.21908e-005 2.56489e-006 3.00812 -8.03028 -4.95137 -0.697654 -176.508 71.8125 7.57417 180 7.01188e-015 177.875 -96.7516 84.7075 95.3106 1.74921e-007 -2.09689e-006 2.61926 -17.2464 64.6185 17.0391 8.13952 25.2325 -3.48903 -177.21 70.0917 -5.38456 4.54188e-006 -4.6773e-006 -1.76877 44.7234 -82.0029 43.8551 3.03243e-007 -1.62171e-006 -1.83672 15.3216 60.3969 -14.6632 -8.19125 26.6348 1.59025 
53.4133 58.0848 -15.4018 -0.149015 -13.8563 3.05201 0.0984172 3.03568 -0.706967 0.245 10.0725 -1.45005 0.263556 11.7174 -1.45773 -12.2049 6.17139 -0.796175 14.1363 2.66373 -2.27722 61.118 -3.35581 -2.27285 115.145 35.0194 -0.744867 2.32386e-005 1.50764e-006 1.60429e-006 10.3101 11.8248 -2.15513 1.07556e-006 5.8827e-006 -3.0067 8.02959 -4.95141 0.697658 -74.1537 -4.81734 3.93833 -97.0303 35.0362 -18.2533 3.18532e-006 -9.88841e-006 3.76803e-007 -0.224011 0.739942 0.842989 1.21908e-005 2.56489e-006 3.00812 -8.03028 -4.95137 -0.697654 -176.525 71.7669 7.57956 180 7.01189e-015 177.876 -96.5963 84.7048 95.1662 1.74921e-007 -2.09689e-006 2.61651 -17.2407 64.6132 17.0355 8.13952 25.2325 -3.48903 -177.272 70.0443 -5.32189 4.54188e-006 -4.6773e-006 -1.76961 44.7013 -82.0067 43.8312 3.03243e-007 -1.62171e-006 -1.83603 15.3155 60.3823 -14.6567 -8.19117 26.6347 1.59039 
53.4088 58.0711 -15.4109 -0.135524 -13.9182 3.06215 0.10301 3.03307 -0.714076 0.25489 10.0672 -1.46426 0.273653 11.712 -1.47215 -12.2598 6.26568 -0.776601 14.1484 2.66721 -2.27882 61.0585 -3.37111 -2.27704 115.218 34.9752 -0.75338 2.32386e-005 1.50764e-006 1.60429e-006 10.3023 11.8167 -2.15405 1.07556e-006 5.8827e-006 -3.0067 8.02959 -4.95141 0.697658 -74.2083 -4.78758 3.92824 -96.9878 35.0026 -18.3135 3.18532e-006 -9.88841e-006 3.76803e-007 -0.204108 0.71061 0.842507 1.21908e-005 2.56489e-006 3.00812 -8.03028 -4.95137 -0.697654 -176.544 71.7199 7.58883 180 7.01189e-015 177.877 -96.4463 84.7022 95.0271 1.74921e-007 -2.09689e-006 2.61346 -17.2344 64.6073 17.0315 8.13952 25.2325 -3.48903 -177.335 69.9974 -5.25943 4.54188e-006 -4.6773e-006 -1.77042 44.679 -82.0108 43.8073 3.03243e-007 -1.62171e-006 -1.83546 15.31 60.3693 -14.651 -8.19106 26.6342 1.59092 
